<svg width="60" height="60" viewBox="0 0 60 60" fill="none" xmlns="http://www.w3.org/2000/svg">
<path d="M30 60C46.5685 60 60 46.5685 60 30C60 13.4315 46.5685 0 30 0C13.4315 0 0 13.4315 0 30C0 46.5685 13.4315 60 30 60Z" fill="#2BC2E8"/>
<path d="M30.146 56.9592C44.9544 56.9592 56.9589 44.9546 56.9589 30.1462C56.9589 15.3378 44.9544 3.33325 30.146 3.33325C15.3376 3.33325 3.33301 15.3378 3.33301 30.1462C3.33301 44.9546 15.3376 56.9592 30.146 56.9592Z" fill="#DCDCDC"/>
<path opacity="0.5" d="M29.835 11.8518L1.85205 33.5966C4.90498 47.7189 16.1435 58.1481 29.8217 58.1481C43.4865 58.1481 54.7117 47.7336 57.778 33.6409L29.835 11.8518Z" fill="#71CFEB"/>
<mask id="mask0" mask-type="alpha" maskUnits="userSpaceOnUse" x="3" y="3" width="54" height="54">
<path d="M30.1463 56.9598C44.9548 56.9598 56.9596 44.9551 56.9596 30.1465C56.9596 15.338 44.9548 3.33325 30.1463 3.33325C15.3377 3.33325 3.33301 15.338 3.33301 30.1465C3.33301 44.9551 15.3377 56.9598 30.1463 56.9598Z" fill="#DCDCDC"/>
</mask>
<g mask="url(#mask0)">
<path d="M24.9473 10.8356L24.9472 10.835C24.8875 10.4055 25.0639 9.9097 25.3204 9.41287C25.5822 8.90578 25.9554 8.3468 26.3515 7.7761M24.9473 10.8356L26.5569 7.91856M24.9473 10.8356C24.9998 11.2066 25.222 11.4945 25.6112 11.6753C25.9836 11.8483 26.5112 11.9263 27.2095 11.9171H27.2113C27.4067 11.9171 27.7026 11.9171 27.9573 11.7817C28.0904 11.7121 28.3273 11.5752 28.5261 11.4587C28.6268 11.3996 28.7195 11.3448 28.787 11.3047L28.8325 11.2776M24.9473 10.8356L28.8325 11.2776M26.3515 7.7761C26.3515 7.77607 26.3515 7.77604 26.3516 7.77601M26.3515 7.7761L26.3514 7.77617L26.5569 7.91856M26.3515 7.7761L26.3515 7.77605L26.3516 7.77601M26.3516 7.77601L26.5569 7.91856M26.3516 7.77601L26.3518 7.77566L26.3527 7.77432L26.3562 7.7694L26.3692 7.75085C26.3806 7.7347 26.3973 7.71111 26.419 7.68085C26.4625 7.62031 26.526 7.53301 26.6069 7.42495C26.7687 7.20893 27.0005 6.90946 27.2811 6.57483C27.8395 5.90876 28.6019 5.09051 29.3972 4.51789L29.4063 4.51133L29.5433 4.72077C28.0034 5.82954 26.5569 7.91856 26.5569 7.91856M28.8325 11.2776L31.0609 11.3757C31.1477 11.4858 31.2184 11.5628 31.2727 11.6161C31.3071 11.6499 31.3352 11.6743 31.3568 11.6916C31.3676 11.7003 31.3769 11.7072 31.3845 11.7127L31.3948 11.7198L31.399 11.7226L31.4009 11.7238L31.4018 11.7243L31.4023 11.7246L31.4025 11.7247C31.4026 11.7248 31.4027 11.7249 31.5351 11.5129L31.4027 11.7249L31.4473 11.7528L31.4994 11.7603C32.5009 11.9049 35.3385 12.1461 37.9137 12.3504C39.2039 12.4528 40.4321 12.5462 41.3377 12.614C41.7905 12.648 42.1626 12.6755 42.4216 12.6945L42.7212 12.7164L42.7997 12.7222L42.8197 12.7236L42.8247 12.724L42.8248 12.724L42.8256 12.724C43.2692 12.7594 46.451 12.9531 49.5171 13.1378C51.0526 13.2303 52.5606 13.3206 53.6849 13.3878L55.0388 13.4686L55.4162 13.4911L55.5155 13.497L55.5409 13.4985L55.5473 13.4989L55.549 13.499L55.5494 13.499C55.5494 13.499 55.5495 13.499 55.5643 13.2494L55.5495 13.499L55.5672 13.5L55.5849 13.4986C55.6469 13.4935 55.7738 13.5003 55.9491 13.5194C56.1176 13.5378 56.3118 13.5651 56.4973 13.5938C56.6824 13.6224 56.8567 13.6519 56.985 13.6743C57.049 13.6855 57.1015 13.6949 57.1378 13.7015L57.1714 13.7077C57.9478 14.0094 58.6525 14.356 59.1652 14.6285C59.4237 14.7659 59.6327 14.8841 59.7768 14.9678C59.8488 15.0096 59.9045 15.0428 59.942 15.0653L59.9844 15.091L59.9948 15.0974L59.9973 15.0989L59.9978 15.0993L59.9979 15.0993L59.9977 15.0995L60.0081 15.1053C61.1072 15.7172 62.3719 16.257 63.3579 16.6429C63.8517 16.8361 64.2774 16.9914 64.5797 17.0984C64.7309 17.1519 64.8514 17.1934 64.9342 17.2216C64.9757 17.2356 65.0077 17.2464 65.0295 17.2537L65.0543 17.2619L65.0581 17.2631C65.0589 17.2634 65.0597 17.2637 65.0605 17.264C65.6105 17.4574 66.1689 17.621 66.7297 17.7584C66.7298 17.7584 66.7299 17.7584 66.7299 17.7584L66.7894 17.5156C68.1093 17.8424 69.5557 18.0883 70.8997 18.2168L28.8325 11.2776ZM117.84 -1.6956C117.84 -1.69561 117.84 -1.69562 117.84 -1.69563C117.832 -1.69627 117.826 -1.69665 117.82 -1.69688L117.813 -1.69711L117.81 -1.69716L117.808 -1.69717L117.808 -1.69717C117.807 -1.69717 117.807 -1.69717 117.807 -1.44717L117.863 -1.69083C117.856 -1.69251 117.848 -1.69409 117.84 -1.6956ZM113.679 17.075L113.791 17.2981C113.797 17.2955 113.802 17.2928 113.807 17.29C113.81 17.2883 113.812 17.2867 113.814 17.2852L113.823 17.2794L113.826 17.2769L113.828 17.2758L113.828 17.2752L113.829 17.275C113.829 17.2748 113.829 17.2747 113.679 17.075ZM118.752 4.04389C118.752 4.04373 118.752 4.04356 118.752 4.0434C118.752 4.04311 118.753 4.04281 118.753 4.04252L118.584 3.858L118.752 4.04389ZM119.121 1.13749L119.369 1.10711C119.369 1.10665 119.369 1.10619 119.369 1.10573L119.369 1.10557L119.369 1.10452L119.369 1.10423L119.369 1.10414L119.121 1.13749Z" fill="#E3E3E3" stroke="#AFAFAF" stroke-width="0.5"/>
</g>
<path d="M14.8384 37.7908C14.798 38.2574 13.893 38.4623 13.9564 40.1012C14.0198 41.7402 13.8872 42.9011 13.8872 42.9011C24.6094 47.7894 30.1146 43.2994 30.1146 43.2994C30.1146 43.2994 35.4988 47.7894 46.221 42.9011C46.221 42.9011 46.2094 41.7402 46.2728 40.1012C46.3363 38.4623 45.4312 38.2631 45.3909 37.7908L43.2637 33.9837L43.3848 33.8016H16.5274L14.8384 37.7908Z" fill="#2BC2E8"/>
<path d="M36.8757 45.3702C32.8924 45.3702 30.6557 43.9361 30.1138 43.5378C29.5662 43.9304 27.2892 45.3702 23.2655 45.3702C20.3313 45.3702 17.1492 44.5962 13.8057 43.0711C13.7308 43.037 13.6847 42.9573 13.6904 42.8719C13.6904 42.8606 13.8172 41.7054 13.7596 40.1006C13.7135 38.9283 14.1458 38.4275 14.4341 38.0975C14.5551 37.9609 14.6358 37.8584 14.6474 37.7674C14.6474 37.7446 14.6531 37.7276 14.6646 37.7105L16.3479 33.7213C16.3767 33.6473 16.4517 33.6018 16.5324 33.6018H43.3898C43.4647 33.6018 43.5281 33.6416 43.5627 33.7042C43.5973 33.7668 43.5915 33.8465 43.5512 33.9034L43.4935 33.9831L45.563 37.682C45.5745 37.7048 45.5861 37.7332 45.5861 37.7617C45.5918 37.8528 45.6783 37.9552 45.7994 38.0918C46.0818 38.4218 46.5142 38.9226 46.4738 40.0949C46.4104 41.711 46.4219 42.8719 46.4219 42.8833C46.4219 42.9573 46.3758 43.0313 46.3066 43.0597C42.9516 44.5962 39.7811 45.3702 36.8757 45.3702ZM30.1138 43.0939C30.1599 43.0939 30.2061 43.111 30.2407 43.1394C30.2637 43.1565 32.5061 44.9775 36.8757 44.9775C39.6946 44.9775 42.7729 44.232 46.0184 42.7695C46.0184 42.4224 46.0242 41.4037 46.0703 40.0892C46.1107 39.0706 45.7532 38.6551 45.4938 38.3535C45.3555 38.1942 45.2287 38.0462 45.1941 37.8471L43.0842 34.0741C43.0727 34.0514 43.0612 34.0229 43.0612 33.9945H16.6592L15.0336 37.8414C15.0048 38.0405 14.8722 38.1942 14.7338 38.3592C14.4744 38.6608 14.117 39.0763 14.1574 40.0949C14.2092 41.4208 14.1343 42.4224 14.0997 42.7809C17.3452 44.2434 20.4293 44.9832 23.2655 44.9832C27.6696 44.9832 29.9639 43.1622 29.987 43.1451C30.0216 43.111 30.0677 43.0939 30.1138 43.0939Z" fill="#2BC2E8"/>
<path d="M44.0521 33.7093C44.0521 33.7093 44.5075 34.1019 44.911 35.058C45.3145 36.014 45.424 37.8009 45.2223 37.6928C45.0205 37.5846 43.833 36.6628 43.0317 35.3823C42.2247 34.1019 41.5675 31.9622 44.0521 33.7093Z" fill="white"/>
<path d="M45.2405 37.8916C45.2001 37.8916 45.1656 37.8802 45.131 37.8632C44.8946 37.7323 43.6783 36.7762 42.8655 35.4844C42.4735 34.8585 41.8913 33.6577 42.1968 33.1171C42.289 32.9521 42.462 32.8553 42.6752 32.8553C43.0154 32.8553 43.5054 33.083 44.1683 33.5496C44.174 33.5553 44.1798 33.5553 44.1856 33.561C44.2029 33.5781 44.6813 33.9935 45.0964 34.9837C45.4423 35.8031 45.644 37.4762 45.4365 37.7835C45.3904 37.8518 45.3154 37.8916 45.2405 37.8916ZM42.6752 33.248C42.5772 33.248 42.5542 33.2878 42.5427 33.3049C42.3928 33.5667 42.6983 34.4715 43.1998 35.2796C43.8282 36.2811 44.7159 37.0722 45.1252 37.3851C45.1425 36.9185 45.0157 35.8088 44.7332 35.1316C44.3816 34.2951 43.9838 33.9081 43.9319 33.8626C43.1652 33.3277 42.8136 33.248 42.6752 33.248Z" fill="white"/>
<path d="M42.2644 32.9364C42.2644 32.9364 43.694 34.251 43.694 35.4574C43.694 36.6639 43.7978 38.0182 43.5787 38.0182C43.3597 38.0182 41.3478 36.5728 40.5811 35.8558C39.8145 35.1331 41.002 31.4796 42.2644 32.9364Z" fill="white"/>
<path d="M43.5785 38.2116C43.5093 38.2116 43.3479 38.2116 42.1719 37.3637C41.6185 36.9654 40.8749 36.3963 40.4483 35.9923C39.9871 35.5598 40.1024 34.433 40.4425 33.5908C40.7481 32.8339 41.1919 32.3958 41.6589 32.3958C41.9241 32.3958 42.1719 32.5323 42.4083 32.7941C42.5409 32.9193 43.8898 34.2111 43.8898 35.4517C43.8898 35.759 43.8955 36.0776 43.9013 36.3849C43.9244 37.5458 43.9186 37.9669 43.7572 38.132C43.7111 38.1832 43.6477 38.2116 43.5785 38.2116ZM41.6589 32.7941C41.3706 32.7941 41.0478 33.1583 40.8115 33.7444C40.4887 34.5355 40.4483 35.4573 40.7192 35.7134C41.4168 36.3679 43.0078 37.5117 43.492 37.7735C43.5324 37.5174 43.5208 36.9028 43.5093 36.402C43.5036 36.0947 43.4978 35.776 43.4978 35.463C43.4978 34.359 42.1431 33.0957 42.1316 33.0843C42.1258 33.0786 42.12 33.0729 42.1143 33.0673C41.9529 32.8852 41.803 32.7941 41.6589 32.7941Z" fill="white"/>
<path d="M40.0921 32.4919C40.3861 32.7822 41.1528 33.5732 41.1528 35.1267C41.1528 36.6803 41.1528 38.0119 40.5129 38.2851C39.873 38.5582 38.5068 37.7445 37.4 35.0983C36.6218 33.2317 39.3485 31.7578 40.0921 32.4919Z" fill="white"/>
<path d="M40.2474 38.5238C39.498 38.5238 38.2529 37.6417 37.2152 35.1663C36.8867 34.3753 37.1461 33.7265 37.4228 33.3168C37.8955 32.6225 38.8005 32.099 39.5326 32.099C39.8266 32.099 40.063 32.1844 40.2301 32.3494C40.5068 32.6225 41.3485 33.4477 41.3485 35.1208C41.3485 36.8052 41.3485 38.1368 40.5875 38.4612C40.4896 38.501 40.3743 38.5238 40.2474 38.5238ZM39.5326 32.4917C39.0023 32.4917 38.1952 32.8843 37.7514 33.5331C37.5265 33.8631 37.319 34.3867 37.5842 35.0126C38.4777 37.1523 39.596 38.1311 40.2532 38.1311C40.3224 38.1311 40.3858 38.1198 40.4377 38.097C40.9565 37.8751 40.9565 36.5377 40.9565 35.1208C40.9565 33.6127 40.2013 32.8729 39.9534 32.6282C39.8381 32.5144 39.6594 32.4917 39.5326 32.4917Z" fill="white"/>
<path d="M16.1683 33.7098C16.1683 33.7098 15.7129 34.1024 15.3094 35.0585C14.9059 36.0145 14.7963 37.8014 14.9981 37.6933C15.1999 37.5851 16.3874 36.6632 17.1886 35.3828C17.9957 34.1024 18.6529 31.9627 16.1683 33.7098Z" fill="white"/>
<path d="M14.9859 37.892C14.9052 37.892 14.8361 37.8521 14.7899 37.7839C14.5824 37.4766 14.7842 35.8035 15.13 34.984C15.5451 33.9995 16.0236 33.5784 16.0409 33.5614C16.0466 33.5557 16.0524 33.5557 16.0582 33.55C16.7211 33.0833 17.2111 32.8557 17.5512 32.8557C17.7645 32.8557 17.9374 32.9468 18.0297 33.1175C18.3352 33.6581 17.7529 34.8645 17.361 35.4848C16.5481 36.7766 15.3318 37.7326 15.0955 37.8635C15.0609 37.8806 15.0205 37.892 14.9859 37.892ZM16.2945 33.863C16.2426 33.9085 15.8449 34.2955 15.4932 35.132C15.2108 35.8092 15.0839 36.9132 15.1012 37.3855C15.5105 37.0725 16.3983 36.2815 17.0266 35.28C17.5339 34.4719 17.8337 33.5727 17.6838 33.3053C17.6722 33.2825 17.6492 33.2484 17.5512 33.2484C17.4071 33.2484 17.0554 33.328 16.2945 33.863Z" fill="white"/>
<path d="M17.963 32.9363C17.963 32.9363 16.5333 34.2509 16.5333 35.4573C16.5333 36.6637 16.4296 38.0181 16.6486 38.0181C16.8677 38.0181 18.8795 36.5727 19.6462 35.8557C20.4129 35.1329 19.2254 31.4795 17.963 32.9363Z" fill="white"/>
<path d="M16.6481 38.2116C16.5789 38.2116 16.5155 38.1832 16.4636 38.132C16.3022 37.9669 16.2964 37.5458 16.3195 36.3849C16.3252 36.0776 16.331 35.759 16.331 35.4517C16.331 34.2111 17.6857 32.9193 17.8125 32.7941C18.0431 32.5266 18.2968 32.3958 18.5619 32.3958C19.0289 32.3958 19.4727 32.8282 19.7783 33.5908C20.1184 34.433 20.2337 35.5598 19.7725 35.9923C19.3459 36.3963 18.6023 36.9597 18.0489 37.3637C16.8787 38.2116 16.7172 38.2116 16.6481 38.2116ZM18.5677 32.7941C18.4236 32.7941 18.2679 32.8852 18.1123 33.0673C18.1065 33.0729 18.1008 33.0786 18.095 33.0843C18.0835 33.0957 16.7288 34.3533 16.7288 35.463C16.7288 35.776 16.723 36.0947 16.7172 36.402C16.7057 36.9085 16.6942 37.5174 16.7345 37.7735C17.2188 37.5117 18.8098 36.3679 19.5073 35.7134C19.7783 35.4573 19.7379 34.5355 19.4151 33.7444C19.1787 33.1526 18.8559 32.7941 18.5677 32.7941Z" fill="white"/>
<path d="M20.1339 32.4928C19.8399 32.783 19.0732 33.574 19.0732 35.1276C19.0732 36.6812 19.0732 38.0128 19.7131 38.2859C20.353 38.5591 21.7192 37.7453 22.826 35.0991C23.6042 33.2326 20.8776 31.7587 20.1339 32.4928Z" fill="white"/>
<path d="M19.9712 38.5241C19.8501 38.5241 19.7348 38.5014 19.631 38.4558C18.8701 38.1315 18.8701 36.7998 18.8701 35.1154C18.8701 33.4423 19.7118 32.6172 19.9885 32.344C20.1556 32.1847 20.392 32.0936 20.686 32.0936C21.4181 32.0936 22.3289 32.6172 22.7958 33.3114C23.0725 33.7212 23.3319 34.3699 23.0033 35.1609C21.9715 37.6477 20.7263 38.5241 19.9712 38.5241ZM20.6917 32.492C20.5649 32.492 20.3862 32.5147 20.2709 32.6286C20.023 32.8733 19.2679 33.613 19.2679 35.1211C19.2679 36.5381 19.2679 37.8754 19.7867 38.0973C19.8386 38.1201 19.902 38.1315 19.9712 38.1315C20.6283 38.1315 21.7409 37.1583 22.6402 35.013C22.9054 34.3813 22.6921 33.8577 22.473 33.5334C22.0291 32.8846 21.2163 32.492 20.6917 32.492Z" fill="white"/>
<path d="M33.7921 32.9982C33.7921 31.9796 30.1143 31.9796 30.1143 32.9982C30.1143 34.7623 30.414 37.5166 31.9532 37.5166C33.4923 37.5166 33.7921 34.7623 33.7921 32.9982Z" fill="white"/>
<path d="M31.9518 37.7104C30.1129 37.7104 29.9111 34.4155 29.9111 32.9985C29.9111 32.3327 30.9372 32.0367 31.9518 32.0367C32.9664 32.0367 33.9925 32.3327 33.9925 32.9985C33.9925 34.4155 33.7907 37.7104 31.9518 37.7104ZM31.9518 32.4294C31.0468 32.4294 30.3089 32.6855 30.3089 32.9985C30.3089 34.0114 30.4299 37.3177 31.9518 37.3177C33.4737 37.3177 33.5947 34.0114 33.5947 32.9985C33.5947 32.6855 32.8569 32.4294 31.9518 32.4294Z" fill="white"/>
<path d="M37.4929 33.3056C37.4929 32.2243 33.792 32.2243 33.792 33.3056C33.792 35.1778 34.5702 38.0971 35.9998 38.0971C37.3257 38.0971 37.4929 35.1721 37.4929 33.3056Z" fill="white"/>
<path d="M35.9995 38.2908C35.2674 38.2908 34.6391 37.6591 34.1779 36.4697C33.8205 35.5422 33.5957 34.33 33.5957 33.3057C33.5957 32.6115 34.6218 32.2985 35.6421 32.2985C36.6625 32.2985 37.6886 32.6115 37.6886 33.3057C37.6886 36.6632 37.1409 38.2908 35.9995 38.2908ZM35.6421 32.6911C34.714 32.6911 33.9877 32.9586 33.9877 33.3057C33.9877 35.178 34.7717 37.9038 35.9995 37.9038C36.8354 37.9038 37.2966 36.2706 37.2966 33.3057C37.2966 32.9586 36.5702 32.6911 35.6421 32.6911Z" fill="white"/>
<path d="M26.4307 32.9981C26.4307 31.9795 30.1085 31.9795 30.1085 32.9981C30.1085 34.7622 29.8087 37.5165 28.2696 37.5165C26.7304 37.5165 26.4307 34.7622 26.4307 32.9981Z" fill="white"/>
<path d="M28.2741 37.7102C26.4352 37.7102 26.2334 34.4153 26.2334 32.9983C26.2334 32.3325 27.2595 32.0366 28.2741 32.0366C29.2886 32.0366 30.3148 32.3325 30.3148 32.9983C30.309 34.4153 30.113 37.7102 28.2741 37.7102ZM28.2741 32.4293C27.369 32.4293 26.6312 32.6854 26.6312 32.9983C26.6312 34.0113 26.7522 37.3176 28.2741 37.3176C29.7959 37.3176 29.917 34.0113 29.917 32.9983C29.9112 32.6854 29.1791 32.4293 28.2741 32.4293Z" fill="white"/>
<path d="M22.7285 33.3056C22.7285 32.2243 26.4294 32.2243 26.4294 33.3056C26.4294 35.1778 25.6512 38.0971 24.2216 38.0971C22.9015 38.0971 22.7285 35.1721 22.7285 33.3056Z" fill="white"/>
<path d="M24.2213 38.2909C23.0856 38.2909 22.5322 36.6577 22.5322 33.3058C22.5322 32.6116 23.5583 32.2986 24.5787 32.2986C25.599 32.2986 26.6251 32.6116 26.6251 33.3058C26.6251 34.3302 26.4003 35.548 26.0429 36.4699C25.5875 37.6649 24.9534 38.2909 24.2213 38.2909ZM24.5787 32.6912C23.6506 32.6912 22.9242 32.9587 22.9242 33.3058C22.9242 36.2707 23.3854 37.9039 24.2213 37.9039C25.4491 37.9039 26.2331 35.1838 26.2331 33.3058C26.2331 32.9587 25.5068 32.6912 24.5787 32.6912Z" fill="white"/>
<path d="M46.5192 27.1886C46.5654 26.71 47.5408 26.4999 47.4716 24.8189C47.4023 23.1379 47.1368 21.4219 47.1368 21.4219C35.5522 16.4082 30.011 21.0134 30.011 21.0134C30.011 21.0134 24.4698 16.4082 12.8852 21.4219C12.8852 21.4219 12.6196 23.1379 12.5504 24.8189C12.4811 26.4999 13.4624 26.7041 13.5028 27.1886L16.2618 30.3988H44.3604L46.5192 27.1886Z" fill="#2BC2E8"/>
<path d="M44.3609 30.5973H16.2624C16.2046 30.5973 16.1527 30.574 16.1123 30.5273L13.3532 27.3171C13.3244 27.2879 13.307 27.2471 13.307 27.2062C13.3013 27.1128 13.2032 27.0078 13.0762 26.8735C12.7702 26.535 12.3027 26.0214 12.3489 24.8132C12.4181 23.138 12.6837 21.4104 12.6837 21.3929C12.6952 21.3228 12.7414 21.2644 12.7991 21.2411C16.4124 19.6769 19.8064 18.8889 22.8945 18.8889C27.1312 18.8889 29.4516 20.3656 30 20.7683C30.5483 20.3656 32.8687 18.8889 37.1054 18.8889C40.1935 18.8889 43.5933 19.6827 47.2008 21.2411C47.2643 21.2703 47.3105 21.3287 47.3163 21.3929C47.3163 21.4104 47.5875 23.1439 47.651 24.8132C47.6972 26.0214 47.2355 26.535 46.9238 26.8735C46.8025 27.0078 46.7044 27.1186 46.6929 27.2062C46.6871 27.2412 46.6756 27.2704 46.6582 27.2996L44.4995 30.5098C44.4879 30.5623 44.4244 30.5973 44.3609 30.5973ZM16.3547 30.1946H44.257L46.3292 27.1128C46.3696 26.9144 46.5082 26.7626 46.6525 26.5992C46.9353 26.2898 47.3163 25.8696 47.2759 24.8248C47.2181 23.4124 47.0161 21.959 46.9584 21.5563C43.4316 20.0446 40.1242 19.28 37.117 19.28C32.4704 19.28 30.1558 21.1477 30.1327 21.1652C30.0577 21.2236 29.9538 21.2236 29.8787 21.1652C29.8557 21.1477 27.541 19.28 22.8945 19.28C19.8872 19.28 16.5798 20.0446 13.0531 21.5563C12.9954 21.959 12.7933 23.4124 12.7356 24.8248C12.6952 25.8638 13.0762 26.2898 13.359 26.5992C13.5033 26.7568 13.6361 26.9085 13.6822 27.0953L16.3547 30.1946Z" fill="#2BC2E8"/>
<path d="M44.2421 28.4898C44.2421 28.4898 45.2175 27.3575 45.864 26.8438C46.5105 26.3302 46.5798 27.0073 46.4701 27.6668C46.3546 28.3264 46.1295 29.6921 45.8352 30.9003C45.5408 32.1085 44.8481 33.0482 43.9188 32.1611C42.9895 31.2739 42.7413 30.0423 44.2421 28.4898Z" fill="white"/>
<path d="M44.6363 32.7166C44.3534 32.7166 44.0706 32.5823 43.7878 32.308C43.2567 31.8002 42.9854 31.2399 42.9739 30.6387C42.9623 29.9091 43.3375 29.1387 44.0995 28.3565C44.1803 28.2632 45.1038 27.195 45.7445 26.6872C45.935 26.5355 46.0966 26.4655 46.2467 26.4655C46.3737 26.4655 46.4776 26.518 46.5584 26.6114C46.7604 26.8565 46.7258 27.341 46.668 27.7028L46.6392 27.8721C46.5237 28.555 46.3044 29.8332 46.0331 30.9539C45.756 32.0745 45.2481 32.7166 44.6363 32.7166ZM46.2467 26.8682C46.2294 26.8682 46.1485 26.8799 45.9927 27.0083C45.3693 27.5044 44.4054 28.6192 44.3996 28.6309C44.3996 28.6367 44.3938 28.6367 44.3938 28.6425C43.707 29.3488 43.3664 30.02 43.3779 30.6387C43.3895 31.129 43.6204 31.5959 44.0648 32.0278C44.2726 32.2263 44.4631 32.3255 44.6363 32.3255C45.0403 32.3255 45.427 31.7652 45.6464 30.8663C45.9177 29.7573 46.1312 28.4908 46.2467 27.8137L46.2755 27.6445C46.3621 27.1308 46.2871 26.9032 46.2524 26.874C46.2524 26.8682 46.2467 26.8682 46.2467 26.8682Z" fill="white"/>
<path d="M40.4185 27.9481C40.4185 27.9481 41.6883 26.0862 42.2598 25.4733C42.8254 24.8605 43.7836 24.5103 44.1299 25.2048C44.4763 25.9052 44.332 29.3489 43.8875 30.5396C43.4431 31.7302 42.5253 32.6408 41.5325 31.8878C40.5282 31.1407 39.1082 30.0143 40.4185 27.9481Z" fill="white"/>
<path d="M42.2576 32.3667C41.969 32.3667 41.6804 32.2617 41.4033 32.0516C40.9242 31.6897 40.272 31.1994 39.9256 30.5048C39.5274 29.7052 39.6313 28.8122 40.2489 27.8433C40.2489 27.8433 40.2489 27.8375 40.2547 27.8375C40.3066 27.7616 41.5418 25.9581 42.1133 25.3394C42.5173 24.9075 43.0599 24.6215 43.5043 24.6215C43.8622 24.6215 44.145 24.7966 44.3067 25.1176C44.6876 25.8822 44.5375 29.3784 44.07 30.6157C43.6544 31.713 42.9791 32.3667 42.2576 32.3667ZM40.5779 28.0593C39.4466 29.8453 40.4336 30.8142 41.64 31.7247C41.8478 31.8823 42.0498 31.9582 42.2518 31.9582C42.8983 31.9582 43.4178 31.1877 43.6891 30.464C44.1393 29.2616 44.2489 25.9055 43.943 25.2868C43.8507 25.1001 43.7064 25.0125 43.4986 25.0125C43.1638 25.0125 42.7251 25.246 42.3961 25.602C41.8593 26.1974 40.6356 27.9776 40.5779 28.0593Z" fill="white"/>
<path d="M40.55 30.2881C40.55 31.7297 35.9785 31.7297 35.9785 30.2881C35.9785 27.8017 36.8905 24.6965 38.2643 24.6965C40.1806 24.6965 40.55 27.8017 40.55 30.2881Z" fill="white"/>
<path d="M38.2701 31.5729C37.0349 31.5729 35.7881 31.176 35.7881 30.2946C35.7881 29.0047 36.0247 27.5864 36.4288 26.4949C36.9079 25.1933 37.5486 24.4988 38.2701 24.4988C39.2225 24.4988 39.9151 25.1758 40.3192 26.5008C40.6078 27.4405 40.7521 28.7187 40.7521 30.2888C40.7521 31.176 39.5053 31.5729 38.2701 31.5729ZM38.2701 24.9015C37.0926 24.9015 36.1806 27.8023 36.1806 30.2946C36.1806 30.8666 37.2542 31.176 38.2701 31.176C39.2802 31.176 40.3596 30.8666 40.3596 30.2946C40.3538 27.8315 39.9902 24.9015 38.2701 24.9015Z" fill="white"/>
<path d="M15.7769 28.49C15.7769 28.49 14.8014 27.3577 14.155 26.8441C13.5085 26.3305 13.4392 27.0075 13.5489 27.6671C13.6643 28.3266 13.8894 29.6924 14.1838 30.9006C14.4782 32.1088 15.1708 33.0485 16.1002 32.1613C17.0295 31.2741 17.2777 30.0426 15.7769 28.49Z" fill="white"/>
<path d="M15.3836 32.7169C14.7718 32.7169 14.258 32.0749 13.9868 30.9542C13.7097 29.8336 13.4961 28.5554 13.3807 27.8725L13.3518 27.7032C13.2883 27.3413 13.2595 26.8569 13.4615 26.6117C13.5423 26.5125 13.652 26.4658 13.7732 26.4658C13.9233 26.4658 14.0849 26.5359 14.2754 26.6876C14.9161 27.1954 15.8454 28.2635 15.9204 28.3569C16.6823 29.139 17.0575 29.9095 17.046 30.6391C17.0344 31.2402 16.7631 31.8006 16.2321 32.3083C15.9493 32.5768 15.6664 32.7169 15.3836 32.7169ZM13.7732 26.8686C13.7674 26.8686 13.7674 26.8686 13.7674 26.8686C13.7328 26.8919 13.652 27.1195 13.7443 27.639L13.7732 27.8083C13.8886 28.4853 14.1022 29.7519 14.3735 30.8608C14.5928 31.7597 14.9796 32.32 15.3836 32.32C15.5568 32.32 15.753 32.2208 15.955 32.0224C16.4053 31.5904 16.6361 31.1293 16.6419 30.6332C16.6535 30.0145 16.3129 29.3433 15.626 28.6371C15.626 28.6371 15.6203 28.6312 15.6203 28.6254C15.6087 28.6137 14.6505 27.4989 14.0272 27.0028C13.8713 26.8744 13.7963 26.8686 13.7732 26.8686Z" fill="white"/>
<path d="M19.5995 27.9486C19.5995 27.9486 18.3296 26.0867 17.7582 25.4738C17.1925 24.8609 16.2344 24.5107 15.888 25.2053C15.5417 25.9057 15.686 29.3494 16.1305 30.54C16.5749 31.7307 17.4927 32.6413 18.4855 31.8883C19.4898 31.1412 20.9098 30.0147 19.5995 27.9486Z" fill="white"/>
<path d="M17.7611 32.3669C17.0396 32.3669 16.3643 31.7132 15.9545 30.6159C15.4927 29.3785 15.3426 25.8823 15.7178 25.1177C15.8737 24.7967 16.1623 24.6216 16.5201 24.6216C16.9646 24.6216 17.5072 24.9017 17.9112 25.3395C18.4827 25.9582 19.7179 27.7617 19.7698 27.8376C19.7698 27.8376 19.7698 27.8434 19.7756 27.8434C20.3875 28.8123 20.4971 29.7053 20.0989 30.505C19.7525 31.1995 19.1003 31.6898 18.6212 32.0517C18.3384 32.2618 18.0498 32.3669 17.7611 32.3669ZM16.5201 25.0243C16.3124 25.0243 16.1681 25.1119 16.0757 25.2986C15.7698 25.9173 15.8737 29.2734 16.3297 30.4758C16.601 31.1995 17.1204 31.97 17.7669 31.97C17.9689 31.97 18.1767 31.8941 18.3788 31.7365C19.5851 30.826 20.5722 29.8571 19.4408 28.0711C19.3831 27.9894 18.1652 26.2092 17.6226 25.6197C17.2936 25.2578 16.8549 25.0243 16.5201 25.0243Z" fill="white"/>
<path d="M19.4736 30.2885C19.4736 31.7301 24.0451 31.7301 24.0451 30.2885C24.0451 27.802 23.1331 24.6969 21.7594 24.6969C19.843 24.6969 19.4736 27.802 19.4736 30.2885Z" fill="white"/>
<path d="M21.7525 31.573C20.5173 31.573 19.2705 31.1761 19.2705 30.2948C19.2705 28.7247 19.4148 27.4465 19.7034 26.5067C20.1075 25.176 20.8001 24.5048 21.7525 24.5048C22.4798 24.5048 23.1147 25.1935 23.5938 26.5009C23.9921 27.5924 24.2345 29.0107 24.2345 30.3006C24.2403 31.1761 22.9935 31.573 21.7525 31.573ZM21.7525 24.9017C20.0267 24.9017 19.663 27.8317 19.663 30.2948C19.663 30.8668 20.7366 31.1761 21.7525 31.1761C22.7626 31.1761 23.842 30.8668 23.842 30.2948C23.842 27.7967 22.93 24.9017 21.7525 24.9017Z" fill="white"/>
<path d="M35.9868 30.8024C35.9868 32.2557 30.0127 32.2557 30.0127 30.8024C30.0127 28.2926 30.4976 24.3704 32.9969 24.3704C35.4962 24.3704 35.9868 28.2926 35.9868 30.8024Z" fill="white"/>
<path d="M32.9958 32.0924C31.5239 32.0924 29.8096 31.7539 29.8096 30.8025C29.8096 28.8063 30.1213 24.172 32.9958 24.172C35.8703 24.172 36.182 28.8122 36.182 30.8025C36.182 31.7539 34.4677 32.0924 32.9958 32.0924ZM32.9958 24.5689C31.9857 24.5689 31.2295 25.2868 30.7504 26.7051C30.2771 28.1176 30.2078 29.8744 30.2078 30.7966C30.2078 31.2928 31.4315 31.6838 32.9958 31.6838C34.56 31.6838 35.7837 31.2928 35.7837 30.7966C35.7837 29.8744 35.7144 28.1176 35.2411 26.7051C34.7678 25.2926 34.0117 24.5689 32.9958 24.5689Z" fill="white"/>
<path d="M24.0342 30.8023C24.0342 32.2556 30.0083 32.2556 30.0083 30.8023C30.0083 28.2925 29.5234 24.3702 27.0241 24.3702C24.5248 24.3702 24.0342 28.2925 24.0342 30.8023Z" fill="white"/>
<path d="M27.026 32.0924C25.5599 32.0924 23.8398 31.7539 23.8398 30.8025C23.8398 28.8063 24.1515 24.172 27.026 24.172C29.9005 24.172 30.2122 28.8122 30.2122 30.8025C30.2065 31.7539 28.4922 32.0924 27.026 32.0924ZM27.026 24.5689C26.0159 24.5689 25.2598 25.2868 24.7807 26.7051C24.3074 28.1176 24.2381 29.8744 24.2381 30.7966C24.2381 31.2928 25.4618 31.6838 27.026 31.6838C28.5903 31.6838 29.814 31.2928 29.814 30.7966C29.814 29.8744 29.7447 28.1176 29.2714 26.7051C28.7923 25.2926 28.0362 24.5689 27.026 24.5689Z" fill="white"/>
</svg>
