<svg width="18" height="16" viewBox="0 0 18 16" fill="none" xmlns="http://www.w3.org/2000/svg">
<path d="M17.8351 7.38344L16.0011 5.76375V1.5C16.0011 1.36739 15.9484 1.24021 15.8546 1.14645C15.7609 1.05268 15.6337 1 15.5011 1H13.5011C13.3685 1 13.2413 1.05268 13.1475 1.14645C13.0538 1.24021 13.0011 1.36739 13.0011 1.5V3.11469L9.83733 0.321875C9.64108 0.144063 9.26701 0 9.00108 0C8.73514 0 8.36201 0.144063 8.16576 0.321875L0.165763 7.38438C0.116916 7.42828 0.0771979 7.48138 0.0488766 7.54063C0.0205552 7.59989 0.00418576 7.66415 0.000703371 7.72973C-0.00277902 7.79532 0.00669386 7.86094 0.0285809 7.92287C0.0504679 7.98479 0.0843402 8.0418 0.128263 8.09062L0.797013 8.83438C0.896872 8.93365 1.02983 8.99262 1.17045 9C1.29258 8.99358 1.40954 8.94862 1.50451 8.87156L2.00139 8.43406V15C2.00139 15.2652 2.10674 15.5196 2.29428 15.7071C2.48182 15.8946 2.73617 16 3.00139 16H15.0011C15.2663 16 15.5206 15.8946 15.7082 15.7071C15.8957 15.5196 16.0011 15.2652 16.0011 15V8.43344L16.4983 8.87094C16.5935 8.94819 16.7108 8.99336 16.8333 9C16.9732 8.99249 17.1053 8.93336 17.2042 8.83406L17.8733 8.09C17.95 7.99475 17.9947 7.87775 18.0011 7.75562C17.9936 7.61533 17.9345 7.48276 17.8351 7.38344ZM11.0011 9.33313C11.0007 9.50997 10.9302 9.67945 10.8051 9.80444C10.68 9.92943 10.5104 9.99975 10.3336 10H7.66795C7.49121 9.99959 7.32183 9.9292 7.19685 9.80422C7.07188 9.67925 7.00149 9.50986 7.00108 9.33313V6.66625C7.00165 6.48962 7.07212 6.3204 7.19707 6.19556C7.32203 6.07072 7.49132 6.00041 7.66795 6H10.3336C10.5103 6.00025 10.6798 6.07048 10.8049 6.19534C10.9299 6.32019 11.0005 6.48951 11.0011 6.66625V9.33313Z" fill="#242F35"/>
</svg>
