<svg width="30" height="30" viewBox="0 0 30 30" fill="none" xmlns="http://www.w3.org/2000/svg">
<path d="M28.2001 12.6H17.4001V1.79998C17.4001 1.13698 16.8631 0.599976 16.2001 0.599976H13.8001C13.1371 0.599976 12.6001 1.13698 12.6001 1.79998V12.6H1.8001C1.1371 12.6 0.600098 13.137 0.600098 13.8V16.2C0.600098 16.863 1.1371 17.4 1.8001 17.4H12.6001V28.2C12.6001 28.863 13.1371 29.4 13.8001 29.4H16.2001C16.8631 29.4 17.4001 28.863 17.4001 28.2V17.4H28.2001C28.8631 17.4 29.4001 16.863 29.4001 16.2V13.8C29.4001 13.137 28.8631 12.6 28.2001 12.6Z" fill="white"/>
</svg>
