<svg width="60" height="60" viewBox="0 0 60 60" fill="none" xmlns="http://www.w3.org/2000/svg">
<path d="M30 60C46.5685 60 60 46.5685 60 30C60 13.4315 46.5685 0 30 0C13.4315 0 0 13.4315 0 30C0 46.5685 13.4315 60 30 60Z" fill="#2BC2E8"/>
<path d="M29.9998 56.8506C44.8084 56.8506 56.8131 44.8459 56.8131 30.0373C56.8131 15.2288 44.8084 3.22406 29.9998 3.22406C15.1912 3.22406 3.18652 15.2288 3.18652 30.0373C3.18652 44.8459 15.1912 56.8506 29.9998 56.8506Z" fill="#DCDCDC"/>
<path opacity="0.5" d="M30.0124 17.8382L3.88379 36.1618C6.73441 48.0623 17.2282 56.8506 30 56.8506C42.7593 56.8506 53.2406 48.0747 56.1037 36.1992L30.0124 17.8382Z" fill="#71CFEB"/>
<path d="M22.3562 29.4772C22.3562 29.4772 21.0118 30.0747 20.1529 31.5685C19.1571 33.2988 18.8334 35.9627 19.9662 38.8257C20.738 40.7677 22.0201 41.9751 22.2068 43.6307C22.4807 46.1452 22.6301 48.7345 23.2525 50.4896C23.8376 52.1328 24.3106 52.6681 25.3687 52.6681C26.4268 52.6681 27.2483 52.4316 27.2857 50.415C27.323 48.3984 27.2981 48.4357 27.3604 47.4523C27.4226 46.4689 28.1695 44.5021 30.0243 44.3278C31.6799 44.166 33.0865 45 33.4102 46.9295C33.7712 49.0955 33.323 49.2946 33.6093 50.7262C33.8956 52.1577 34.2815 52.6556 35.1031 52.6556C35.9247 52.6556 37.4185 52.8797 38.0409 48.1494C38.6135 43.8423 37.7546 43.7925 38.9247 41.5892C39.8459 39.8589 41.7753 34.3818 40.0824 31.3693C38.6259 28.7801 36.1114 28.8299 34.8542 29.1411C33.5969 29.4523 31.8293 30.5477 30.3977 30.5851C28.9662 30.6224 27.4849 29.527 26.128 29.2407C24.7463 28.9544 23.6757 29.0042 22.3562 29.4772Z" fill="white"/>
<path d="M41.9502 11.751V3.75934C38.1286 2.78839 34.1203 2.26556 30 2.26556C25.8797 2.26556 21.8714 2.78839 18.0498 3.75934V11.7635H41.9502V11.751Z" fill="#2BC2E8"/>
<path d="M37.0327 15.0373V10.4191H22.9663V15.0373L17.7754 21.5353H42.2235L37.0327 15.0373Z" fill="#2BC2E8"/>
</svg>
