<svg width="100" height="100" viewBox="0 0 100 100" fill="none" xmlns="http://www.w3.org/2000/svg">
<path d="M50 100C77.6142 100 100 77.6142 100 50C100 22.3858 77.6142 0 50 0C22.3858 0 0 22.3858 0 50C0 77.6142 22.3858 100 50 100Z" fill="#777777"/>
<path d="M62.7371 53.3784C67.8354 49.57 71.1523 43.4889 71.1523 36.6093C71.1523 25.0614 61.8157 15.7248 50.2678 15.7248C38.7199 15.7248 29.3833 25.0614 29.3833 36.6093C29.3833 43.4889 32.7002 49.57 37.7985 53.3784C23.4251 56.8796 13.8428 64.9263 12 76.2285C21.1523 87.8992 34.2973 96.7444 50.2678 96.7444C66.2383 96.7444 79.5676 87.8992 88.7199 76.2285C86.3858 65.172 77.1106 56.8796 62.7371 53.3784Z" fill="white"/>
</svg>
