<svg width="25" height="18" viewBox="0 0 25 18" fill="none" xmlns="http://www.w3.org/2000/svg">
<path d="M21 7.81875C21.1602 7.38884 21.25 6.91875 21.25 6.42857C21.25 4.29911 19.5703 2.57143 17.5 2.57143C16.7305 2.57143 16.0117 2.8125 15.418 3.22232C14.3359 1.29375 12.3164 0 10 0C6.54688 0 3.75 2.87679 3.75 6.42857C3.75 6.53705 3.75391 6.64554 3.75781 6.75402C1.57031 7.54554 0 9.69107 0 12.2143C0 15.4085 2.51953 18 5.625 18H20C22.7617 18 25 15.6978 25 12.8571C25 10.3701 23.2812 8.29286 21 7.81875Z" fill="#54ACDF"/>
<circle cx="7.5" cy="11.5" r="1.5" fill="white"/>
<circle cx="12.5" cy="11.5" r="1.5" fill="white"/>
<circle cx="17.5" cy="11.5" r="1.5" fill="white"/>
</svg>
