<svg width="60" height="60" viewBox="0 0 60 60" fill="none" xmlns="http://www.w3.org/2000/svg">
<path d="M30 60C46.5685 60 60 46.5685 60 30C60 13.4315 46.5685 0 30 0C13.4315 0 0 13.4315 0 30C0 46.5685 13.4315 60 30 60Z" fill="#2BC2E8"/>
<path d="M29.9998 56.8506C44.8084 56.8506 56.8131 44.8459 56.8131 30.0373C56.8131 15.2288 44.8084 3.22406 29.9998 3.22406C15.1912 3.22406 3.18652 15.2288 3.18652 30.0373C3.18652 44.8459 15.1912 56.8506 29.9998 56.8506Z" fill="#2BC2E8"/>
<path d="M40.1449 5.21576C38.5391 5.37758 36.8959 5.67634 35.2403 6.16182C33.4353 6.68464 24.5225 10.2821 23.6511 16.9046C22.1822 28.0705 17.1407 28.8672 14.9996 31.1577C13.6677 32.6017 18.9333 34.8921 18.5723 35.9004C18.2113 36.9087 17.2777 38.5145 16.6926 39.1618C16.0826 39.7967 19.1698 41.0664 19.1698 41.0664C19.0702 41.1286 17.7507 41.1037 17.315 41.6141C16.9664 42.0249 16.8669 42.5602 17.4893 43.2199C19.0577 44.8755 14.1781 47.166 17.8503 50.3029C20.0785 52.2075 29.564 50.4025 30.9457 51.4606C31.7548 52.083 31.842 54.2739 30.983 56.8506C45.3233 56.3278 56.8005 44.5394 56.8005 30.0622C56.8129 18.8216 49.9167 9.22406 40.1449 5.21576Z" fill="white"/>
</svg>
