<svg width="25" height="18" viewBox="0 0 25 18" fill="none" xmlns="http://www.w3.org/2000/svg">
<path d="M20.2972 7.55693L19.9923 8.37535L20.8474 8.55306C22.7732 8.9533 24.25 10.7178 24.25 12.8571C24.25 15.3036 22.3277 17.25 20 17.25H5.625C2.95352 17.25 0.75 15.0143 0.75 12.2143C0.75 10.006 2.1233 8.14303 4.013 7.45927L4.527 7.27329L4.50733 6.72703C4.50334 6.61629 4.5 6.5213 4.5 6.42857C4.5 3.27094 6.98087 0.75 10 0.75C12.0269 0.75 13.8054 1.88095 14.7639 3.5893L15.1666 4.30712L15.844 3.83957C16.3179 3.51244 16.8891 3.32143 17.5 3.32143C19.1363 3.32143 20.5 4.69326 20.5 6.42857C20.5 6.82695 20.427 7.20849 20.2972 7.55693Z" stroke="#777777" stroke-width="1.5"/>
</svg>
