<svg width="25" height="18" viewBox="0 0 25 18" fill="none" xmlns="http://www.w3.org/2000/svg">
<path d="M21 7.81875C21.1602 7.38884 21.25 6.91875 21.25 6.42857C21.25 4.29911 19.5703 2.57143 17.5 2.57143C16.7305 2.57143 16.0117 2.8125 15.418 3.22232C14.3359 1.29375 12.3164 0 10 0C6.54687 0 3.75 2.87679 3.75 6.42857C3.75 6.53705 3.75391 6.64554 3.75781 6.75402C1.57031 7.54554 0 9.69107 0 12.2143C0 15.4085 2.51953 18 5.625 18H20C22.7617 18 25 15.6978 25 12.8571C25 10.3701 23.2813 8.29286 21 7.81875Z" fill="#8938AF"/>
<path d="M11.0568 13.8625L8.1318 10.8117C7.95607 10.6285 7.95607 10.3313 8.1318 10.148L8.76818 9.48422C8.94391 9.30091 9.22885 9.30091 9.40458 9.48422L11.375 11.5393L15.5954 7.13746C15.7712 6.95418 16.0561 6.95418 16.2318 7.13746L16.8682 7.80123C17.0439 7.98451 17.0439 8.28169 16.8682 8.46499L11.6932 13.8625C11.5175 14.0458 11.2325 14.0458 11.0568 13.8625Z" fill="white"/>
</svg>
