<svg width="60" height="60" viewBox="0 0 60 60" fill="none" xmlns="http://www.w3.org/2000/svg">
<path d="M30 60C46.5685 60 60 46.5685 60 30C60 13.4315 46.5685 0 30 0C13.4315 0 0 13.4315 0 30C0 46.5685 13.4315 60 30 60Z" fill="#2BC2E8"/>
<path d="M29.8133 56.6266C44.6218 56.6266 56.6266 44.6218 56.6266 29.8133C56.6266 15.0047 44.6218 3 29.8133 3C15.0047 3 3 15.0047 3 29.8133C3 44.6218 15.0047 56.6266 29.8133 56.6266Z" fill="#DCDCDC"/>
<path d="M46.8579 24.2069C46.468 24.1517 46.108 24.3448 45.6881 24.7034C44.6382 15.2414 38.099 10 30.15 10C22.111 10 15.4818 15.2966 14.5519 24.9517C14.102 24.3724 13.592 24.0966 13.1421 24.1793C12.0922 24.3724 11.7023 26.5517 12.2422 29.1172C12.7821 31.5724 14.042 33.4207 15.0319 33.3103C16.9216 42.2759 22.9809 50 30.12 50C37.2591 50 43.2884 42.2759 45.2081 33.2828C46.168 33.0621 47.2479 31.3241 47.7578 29.0897C48.2977 26.6345 47.9078 24.4 46.8579 24.2069Z" fill="#2BC2E8"/>
<path opacity="0.3" d="M30 11.7103V47.8758" stroke="white" stroke-linecap="round" stroke-linejoin="round"/>
<path opacity="0.3" d="M16.8594 27.3793C25.2883 29.7517 35.1271 29.7517 43.1661 27.3793" stroke="white" stroke-linecap="round" stroke-linejoin="round"/>
<path d="M22.7695 39.4898C22.8595 39.4898 23.2195 40.207 23.2795 40.2898C23.4894 40.5933 23.6694 40.9243 23.9094 41.2002C24.7193 42.3036 25.6192 43.2139 26.969 43.7657C29.5787 44.8415 32.9083 44.4277 34.948 42.5519C35.398 42.1381 35.7279 41.6415 36.0879 41.145C36.2979 40.8415 36.5078 40.5381 36.7178 40.2346C36.7778 40.1519 37.1378 39.4622 37.2277 39.4622C37.2277 39.4898 22.7695 39.4898 22.7695 39.4898Z" fill="#DCDCDC"/>
</svg>
